<svg xmlns="http://www.w3.org/2000/svg" width="23.023" height="23.047" viewBox="0 0 23.023 23.047">
  <g id="Group_35" data-name="Group 35" transform="translate(-1087 235)">
    <g id="Ellipse_19" data-name="Ellipse 19" transform="translate(1087.023 -234.977)" fill="#3a4a51" stroke="#febc5e" stroke-width="1">
      <circle cx="11.5" cy="11.5" r="11.5" stroke="none"/>
      <circle cx="11.5" cy="11.5" r="11" fill="none"/>
    </g>
    <g id="Path_196" data-name="Path 196" transform="translate(1087 -235)" fill="#3a4a51">
      <path d="M 11.02343845367432 22.52064323425293 C 10.0935525894165 22.44764137268066 8.00932502746582 22.17225646972656 5.955438613891602 21.13581657409668 C 4.369028568267822 20.33526802062988 3.107298851013184 19.24042701721191 2.205288648605347 17.8816967010498 C 1.073738694190979 16.17720794677734 0.4999987483024597 14.03797721862793 0.4999987483024597 11.5234375 C 0.4999987483024597 9.000597953796387 1.077508807182312 6.855717658996582 2.216478824615479 5.148367404937744 C 3.123488664627075 3.788727521896362 4.391628742218018 2.694427490234375 5.985668659210205 1.895857453346252 C 8.036370277404785 0.8685226440429688 10.10006809234619 0.5971443653106689 11.02343845367432 0.5255712270736694 L 11.02343845367432 12.25446796417236 L 11.02343845367432 22.52064323425293 Z" stroke="none"/>
      <path d="M 10.52343845367432 1.076757431030273 C 9.508367538452148 1.199367523193359 7.85709285736084 1.51756477355957 6.209628582000732 2.342897415161133 C 2.752768516540527 4.074687957763672 0.9999990463256836 7.163467407226562 0.9999990463256836 11.5234375 C 0.9999990463256836 15.85790729522705 2.733088493347168 18.93675804138184 6.151128768920898 20.67445755004883 C 7.807875633239746 21.51673126220703 9.492570877075195 21.8422908782959 10.52343845367432 21.96800231933594 L 10.52343845367432 1.076757431030273 M 11.52343845367432 -1.9073486328125e-06 C 11.52343845367432 -1.9073486328125e-06 11.52343845367432 6.492748260498047 11.52343845367432 12.25446796417236 C 11.52343845367432 18.01618766784668 11.52343845367432 23.04687690734863 11.52343845367432 23.04687690734863 C 11.52343845367432 23.04687690734863 -9.5367431640625e-07 23.02449798583984 -9.5367431640625e-07 11.5234375 C -9.5367431640625e-07 0.02237701416015625 11.52343845367432 -1.9073486328125e-06 11.52343845367432 -1.9073486328125e-06 Z" stroke="none" fill="#df5c51"/>
    </g>
    <path id="Path_197" data-name="Path 197" d="M10.556,0V20.886S0,20.866,0,10.443,10.556,0,10.556,0Z" transform="translate(1088.081 -233.88)" fill="#3a4a51"/>
    <g id="Layer_11" transform="translate(1093.126 -230.156)">
      <path id="Path_3" d="M53.12,68.982c-.026.262-.41.314-.768.314a1.136,1.136,0,0,1-.8-.332,1.038,1.038,0,0,1-.349-.759,1.658,1.658,0,0,1,.079-.506c.052-.175.148-.41.271-.716l3.037-7.723.314-.8a4.323,4.323,0,0,1,.393-.777,1.556,1.556,0,0,1,.541-.5,1.7,1.7,0,0,1,.829-.192,1.644,1.644,0,0,1,.838.192,1.618,1.618,0,0,1,.541.489,3.543,3.543,0,0,1,.349.646c.1.236.218.532.358.916l3.107,7.68a4.033,4.033,0,0,1,.367,1.274,1.079,1.079,0,0,1-.34.759,1.113,1.113,0,0,1-.829.34,1.093,1.093,0,0,1-.471-.1c-.131-.07-.332-.131-.34-.279-.052-.716-1.737-1.937-3.578-1.929C55,67.01,53.2,68.24,53.12,68.982Z" transform="translate(-51.2 -56.991)" fill="#fff"/>
    </g>
  </g>
</svg>
