<svg xmlns="http://www.w3.org/2000/svg" xmlns:xlink="http://www.w3.org/1999/xlink" width="33.218" height="38.561" viewBox="0 0 33.218 38.561">
  <defs>
    <filter id="Path_62" x="5.077" y="19.25" width="19.67" height="19.31" filterUnits="userSpaceOnUse">
      <feOffset dy="3" input="SourceAlpha"/>
      <feGaussianBlur stdDeviation="3" result="blur"/>
      <feFlood flood-color="#19222a" flood-opacity="0.506"/>
      <feComposite operator="in" in2="blur"/>
      <feComposite in="SourceGraphic"/>
    </filter>
    <filter id="Path_65" x="0.472" y="16.005" width="19.682" height="19.782" filterUnits="userSpaceOnUse">
      <feOffset dy="3" input="SourceAlpha"/>
      <feGaussianBlur stdDeviation="3" result="blur-2"/>
      <feFlood flood-color="#19222a" flood-opacity="0.506"/>
      <feComposite operator="in" in2="blur-2"/>
      <feComposite in="SourceGraphic"/>
    </filter>
    <filter id="Path_70" x="0" y="7.068" width="19.602" height="19.779" filterUnits="userSpaceOnUse">
      <feOffset dy="3" input="SourceAlpha"/>
      <feGaussianBlur stdDeviation="3" result="blur-3"/>
      <feFlood flood-color="#19222a" flood-opacity="0.506"/>
      <feComposite operator="in" in2="blur-3"/>
      <feComposite in="SourceGraphic"/>
    </filter>
    <filter id="Path_71" x="1.043" y="5.58" width="19.74" height="19.76" filterUnits="userSpaceOnUse">
      <feOffset dy="3" input="SourceAlpha"/>
      <feGaussianBlur stdDeviation="3" result="blur-4"/>
      <feFlood flood-color="#19222a" flood-opacity="0.506"/>
      <feComposite operator="in" in2="blur-4"/>
      <feComposite in="SourceGraphic"/>
    </filter>
    <filter id="Path_72" x="2.45" y="4.44" width="19.784" height="19.645" filterUnits="userSpaceOnUse">
      <feOffset dy="3" input="SourceAlpha"/>
      <feGaussianBlur stdDeviation="3" result="blur-5"/>
      <feFlood flood-color="#19222a" flood-opacity="0.506"/>
      <feComposite operator="in" in2="blur-5"/>
      <feComposite in="SourceGraphic"/>
    </filter>
    <filter id="Path_73" x="4.148" y="3.709" width="19.731" height="19.442" filterUnits="userSpaceOnUse">
      <feOffset dy="3" input="SourceAlpha"/>
      <feGaussianBlur stdDeviation="3" result="blur-6"/>
      <feFlood flood-color="#19222a" flood-opacity="0.506"/>
      <feComposite operator="in" in2="blur-6"/>
      <feComposite in="SourceGraphic"/>
    </filter>
  </defs>
  <g id="Group_36" data-name="Group 36" transform="translate(-1027.77 313.012)">
    <rect id="Rectangle_39" data-name="Rectangle 39" width="33" height="33" rx="2" transform="translate(1027.988 -313.012)" fill="#3a4a51"/>
    <g id="Group_35" data-name="Group 35" transform="translate(1031.178 -307.816)">
      <g id="Logo_A_-_Black" data-name="Logo A - Black" transform="translate(8.736 7.071)">
        <g id="Layer_11" transform="translate(0 0)">
          <path id="Path_3" d="M52.8,67.007c-.022.219-.343.262-.641.262a.949.949,0,0,1-.671-.277.867.867,0,0,1-.292-.634,1.385,1.385,0,0,1,.066-.423c.044-.146.124-.343.226-.6l2.537-6.451.262-.671a3.611,3.611,0,0,1,.328-.649,1.3,1.3,0,0,1,.452-.416,1.424,1.424,0,0,1,.693-.16,1.373,1.373,0,0,1,.7.16,1.352,1.352,0,0,1,.452.408,2.959,2.959,0,0,1,.292.539c.08.2.182.445.3.765l2.6,6.415a3.369,3.369,0,0,1,.306,1.064.9.9,0,0,1-.284.634.93.93,0,0,1-.693.284.913.913,0,0,1-.394-.087c-.109-.058-.277-.109-.284-.233-.044-.6-1.451-1.618-2.989-1.611C54.378,65.36,52.869,66.388,52.8,67.007Z" transform="translate(-51.2 -56.991)" fill="#fff"/>
        </g>
      </g>
      <g id="Group_34" data-name="Group 34" transform="translate(0 0)">
        <text id="_0_" data-name="0%" transform="translate(12.843 5.431)" fill="#2f4858" font-size="2" font-family="HelveticaNeue, Helvetica Neue"><tspan x="0" y="0">0%</tspan></text>
        <path id="Path_48" data-name="Path 48" d="M2.5-141.4a11.47,11.47,0,0,1,2.245.262l-.775,3.27a8.114,8.114,0,0,0-1.47-.172Z" transform="translate(11.114 142.77)" fill="#febc5e" stroke="#febc5e" stroke-width="1"/>
        <path id="Path_49" data-name="Path 49" d="M26.671-158.3a13.245,13.245,0,0,1,2.511.914l-2.3,4.589a8.114,8.114,0,0,0-1.391-.506Z" transform="translate(-10.009 158.302)" fill="#febc5e" stroke="#febc5e" stroke-width="1"/>
        <path id="Path_50" data-name="Path 50" d="M47.1-88.213a8.111,8.111,0,0,1,1.236.813A8.112,8.112,0,0,0,47.1-88.213Z" transform="translate(-29.869 93.898)" fill="#febc5e" stroke="#febc5e" stroke-width="1"/>
        <path id="Path_51" data-name="Path 51" d="M69.475-123.473a13.245,13.245,0,0,1,1.834,1.944l-4.119,3.066a8.108,8.108,0,0,0-1.015-1.076Z" transform="translate(-47.396 126.298)" fill="#febc5e" stroke="#febc5e" stroke-width="1"/>
        <path id="Path_52" data-name="Path 52" d="M84.375-82.432a11.469,11.469,0,0,1,1.13,1.957L82.42-79.144a8.112,8.112,0,0,0-.74-1.282Z" transform="translate(-61.644 88.586)" fill="#febc5e" stroke="#febc5e" stroke-width="1"/>
        <path id="Path_53" data-name="Path 53" d="M94.951-48.829a10.471,10.471,0,0,1,.582,1.943l-2.325.41a8.111,8.111,0,0,0-.424-1.418Z" transform="translate(-71.846 57.708)" fill="#febc5e" stroke="#febc5e" stroke-width="1"/>
        <path id="Path_54" data-name="Path 54" d="M101.209-19.952a10.472,10.472,0,0,1,.118,2.025l-2.357-.137a8.11,8.11,0,0,0-.086-1.477Z" transform="translate(-77.453 31.173)" fill="#febc5e" stroke="#febc5e" stroke-width="1"/>
        <path id="Path_55" data-name="Path 55" d="M101.869,8.607a13.246,13.246,0,0,1-.464,2.631L96.486,9.765a8.109,8.109,0,0,0,.257-1.457Z" transform="translate(-75.249 5.205)" fill="#febc5e" stroke="#febc5e" stroke-width="1"/>
        <path id="Path_56" data-name="Path 56" d="M89.614,31.426a9.367,9.367,0,0,1-.7,1.626l-1.087-.628a8.111,8.111,0,0,0,.586-1.359Z" transform="translate(-67.291 -15.707)" fill="#febc5e" stroke="#febc5e" stroke-width="1"/>
        <path id="Path_57" data-name="Path 57" d="M77.358,53.329a10.47,10.47,0,0,1-1.211,1.627l-1.717-1.62a8.112,8.112,0,0,0,.884-1.187Z" transform="translate(-54.982 -35.08)" fill="#febc5e" stroke="#febc5e" stroke-width="1"/>
        <path id="Path_58" data-name="Path 58" d="M58.156,70.421a8.108,8.108,0,0,1-1.134.951A8.108,8.108,0,0,0,58.156,70.421Z" transform="translate(-38.986 -51.87)" fill="#febc5e" stroke="#febc5e" stroke-width="1"/>
        <path id="Path_59" data-name="Path 59" d="M37.863,84.9a8.111,8.111,0,0,1-1.322.664A8.111,8.111,0,0,0,37.863,84.9Z" transform="translate(-20.166 -65.171)" fill="#febc5e" stroke="#febc5e" stroke-width="1"/>
        <path id="Path_60" data-name="Path 60" d="M15.529,94.795a8.113,8.113,0,0,1-1.44.341A8.113,8.113,0,0,0,15.529,94.795Z" transform="translate(0.465 -74.267)" fill="#febc5e" stroke="#febc5e" stroke-width="1"/>
        <path id="Path_61" data-name="Path 61" d="M-9.148,100.83a9.368,9.368,0,0,1-1.771,0l.146-1.247a8.112,8.112,0,0,0,1.48,0Z" transform="translate(23.444 -78.667)" fill="#febc5e" stroke="#febc5e" stroke-width="1"/>
        <g transform="matrix(1, 0, 0, 1, -3.41, -5.2)" filter="url(#Path_62)">
          <path id="Path_62-2" data-name="Path 62" d="M-30.4,95.136a8.111,8.111,0,0,1-1.44-.341A8.111,8.111,0,0,0-30.4,95.136Z" transform="translate(46.08 -69.07)" fill="#df5c51" stroke="#df5c51" stroke-width="1"/>
        </g>
        <path id="Path_63" data-name="Path 63" d="M-67.027,87.779a10.47,10.47,0,0,1-1.812-.91l1.3-1.972a8.111,8.111,0,0,0,1.322.664Z" transform="translate(76.667 -65.171)" fill="#df5c51" stroke="#df5c51" stroke-width="1"/>
        <path id="Path_64" data-name="Path 64" d="M-90.617,73.345a10.471,10.471,0,0,1-1.553-1.3l1.717-1.62a8.111,8.111,0,0,0,1.134.951Z" transform="translate(98.105 -51.87)" fill="#df5c51" stroke="#df5c51" stroke-width="1"/>
        <g transform="matrix(1, 0, 0, 1, -3.41, -5.2)" filter="url(#Path_65)">
          <path id="Path_65-2" data-name="Path 65" d="M-84.441,53.336a8.111,8.111,0,0,1-.884-1.187A8.11,8.11,0,0,0-84.441,53.336Z" transform="translate(95.22 -29.88)" fill="#df5c51" stroke="#df5c51" stroke-width="1"/>
        </g>
        <path id="Path_66" data-name="Path 66" d="M-122.133,33.605a10.47,10.47,0,0,1-.8-1.862l2.262-.677a8.107,8.107,0,0,0,.586,1.359Z" transform="translate(126.376 -15.707)" fill="#df5c51" stroke="#df5c51" stroke-width="1"/>
        <path id="Path_67" data-name="Path 67" d="M-128.36,10.442a10.472,10.472,0,0,1-.352-2l2.357-.137a8.109,8.109,0,0,0,.257,1.457Z" transform="translate(131.684 5.205)" fill="#df5c51" stroke="#df5c51" stroke-width="1"/>
        <path id="Path_68" data-name="Path 68" d="M-152.742-21.591a12.388,12.388,0,0,1,.144-2.469l4.215.743a8.108,8.108,0,0,0-.086,1.477Z" transform="translate(153.774 34.948)" fill="#df5c51" stroke="#df5c51" stroke-width="1"/>
        <path id="Path_69" data-name="Path 69" d="M-196.512-74.176a16.072,16.072,0,0,1,.675-2.738l5.211,2.73a8.039,8.039,0,0,0-.3,1.2Z" transform="translate(196.512 84.211)" fill="#df5c51" stroke="#df5c51" stroke-width="1"/>
        <g transform="matrix(1, 0, 0, 1, -3.41, -5.2)" filter="url(#Path_70)">
          <path id="Path_70-2" data-name="Path 70" d="M-90.8-56.41a8.11,8.11,0,0,1,.74-1.282A8.11,8.11,0,0,0-90.8-56.41Z" transform="translate(100.26 71.05)" fill="#df5c51" stroke="#df5c51" stroke-width="1"/>
        </g>
        <g transform="matrix(1, 0, 0, 1, -3.41, -5.2)" filter="url(#Path_71)">
          <path id="Path_71-2" data-name="Path 71" d="M-78.694-73.9a8.112,8.112,0,0,1,1.015-1.076A8.112,8.112,0,0,0-78.694-73.9Z" transform="translate(89.13 86.93)" fill="#df5c51" stroke="#df5c51" stroke-width="1"/>
        </g>
        <g transform="matrix(1, 0, 0, 1, -3.41, -5.2)" filter="url(#Path_72)">
          <path id="Path_72-2" data-name="Path 72" d="M-62.344-87.4a8.112,8.112,0,0,1,1.236-.813A8.112,8.112,0,0,0-62.344-87.4Z" transform="translate(74.11 99.09)" fill="#df5c51" stroke="#df5c51" stroke-width="1"/>
        </g>
        <g transform="matrix(1, 0, 0, 1, -3.41, -5.2)" filter="url(#Path_73)">
          <path id="Path_73-2" data-name="Path 73" d="M-42.632-96.192a8.109,8.109,0,0,1,1.391-.506A8.109,8.109,0,0,0-42.632-96.192Z" transform="translate(55.99 106.89)" fill="#df5c51" stroke="#df5c51" stroke-width="1"/>
        </g>
        <path id="Path_74" data-name="Path 74" d="M-30.176-141.137a11.47,11.47,0,0,1,2.245-.262v3.36a8.115,8.115,0,0,0-1.47.172Z" transform="translate(41.14 142.77)" fill="#df5c51" stroke="#df5c51" stroke-width="1"/>
      </g>
    </g>
  </g>
</svg>
