<svg xmlns="http://www.w3.org/2000/svg" width="146" height="154.789" viewBox="0 0 146 154.789">
  <g id="Logo_A_-_Black" data-name="Logo A - Black" transform="translate(-18.2 -56.991)">
    <g id="Layer_11" transform="translate(43.487 56.991)">
      <path id="Path_3" d="M68.058,162.285c-.23,2.3-3.6,2.759-6.743,2.759a9.971,9.971,0,0,1-7.05-2.912,9.118,9.118,0,0,1-3.065-6.667,14.555,14.555,0,0,1,.69-4.444c.46-1.533,1.3-3.6,2.375-6.284L80.932,76.921l2.759-7.05a37.968,37.968,0,0,1,3.448-6.82,13.661,13.661,0,0,1,4.751-4.368A14.966,14.966,0,0,1,99.169,57a14.438,14.438,0,0,1,7.356,1.686,14.208,14.208,0,0,1,4.751,4.291,31.112,31.112,0,0,1,3.065,5.67c.843,2.069,1.916,4.674,3.142,8.046l27.28,67.433a35.418,35.418,0,0,1,3.218,11.188,9.476,9.476,0,0,1-2.988,6.667,9.774,9.774,0,0,1-7.28,2.988,9.6,9.6,0,0,1-4.138-.92c-1.149-.613-2.912-1.149-2.988-2.452-.46-6.284-15.249-17.011-31.418-16.935C84.61,144.967,68.748,155.771,68.058,162.285Z" transform="translate(-51.2 -56.991)" fill="rgba(250,250,250,0.5)"/>
    </g>
    <text id="Apace.io" transform="translate(18.2 203.779)" fill="rgba(250,250,250,0.5)" font-size="34" font-family="ArialRoundedMTBold, Arial Rounded MT Bold"><tspan x="0" y="0">Apace.io</tspan></text>
  </g>
</svg>
